<?xml version="1.0" encoding="UTF-8"?>
<svg width="24px" height="24px" viewBox="0 0 24 24" version="1.1" xmlns="http://www.w3.org/2000/svg" xmlns:xlink="http://www.w3.org/1999/xlink">
    <title>TikTok</title>
    <g stroke="none" stroke-width="1" fill="none" fill-rule="evenodd">
        <path d="M12.525,0.02 C13.835,0 15.135,0.01 16.435,0 C16.515,1.53 17.065,3.09 18.185,4.17 C19.305,5.28 20.885,5.79 22.425,5.96 L22.425,9.99 C20.985,9.94 19.535,9.64 18.225,9.02 C17.655,8.76 17.125,8.43 16.605,8.09 C16.595,11.01 16.615,13.93 16.585,16.84 C16.505,18.24 16.045,19.63 15.235,20.78 C13.925,22.7 11.655,23.95 9.325,23.99 C7.895,24.07 6.465,23.68 5.245,22.96 C3.225,21.77 1.805,19.59 1.595,17.25 C1.575,16.75 1.565,16.25 1.585,15.76 C1.765,13.86 2.705,12.04 4.165,10.8 C5.825,9.36 8.145,8.67 10.315,9.08 C10.335,10.56 10.275,12.04 10.275,13.52 C9.285,13.2 8.125,13.29 7.255,13.89 C6.625,14.3 6.145,14.93 5.895,15.64 C5.685,16.15 5.745,16.71 5.755,17.25 C5.995,18.89 7.575,20.27 9.255,20.12 C10.375,20.11 11.445,19.46 12.025,18.51 C12.215,18.18 12.425,17.84 12.435,17.45 C12.535,15.66 12.495,13.88 12.505,12.09 C12.515,8.06 12.495,4.04 12.525,0.02 Z" fill="#000000" fill-rule="nonzero"></path>
    </g>
</svg>
